<svg width="68" height="19" viewBox="0 0 68 19" fill="none" xmlns="http://www.w3.org/2000/svg">
<path d="M3.2 11.4V0.48H0V14.48H8.2V11.4H3.2Z" fill="#0B0D17"/>
<path d="M16.6717 4.48V5.42C16.0117 4.66 15.0317 4.2 13.6917 4.2C11.0717 4.2 8.91172 6.5 8.91172 9.48C8.91172 12.46 11.0717 14.76 13.6917 14.76C15.0317 14.76 16.0117 14.3 16.6717 13.54V14.48H19.6717V4.48H16.6717ZM14.2917 11.92C12.9117 11.92 11.9117 10.98 11.9117 9.48C11.9117 7.98 12.9117 7.04 14.2917 7.04C15.6717 7.04 16.6717 7.98 16.6717 9.48C16.6717 10.98 15.6717 11.92 14.2917 11.92Z" fill="#0B0D17"/>
<path d="M27.7327 4.2C26.4127 4.2 25.4127 4.68 24.8727 5.42V4.48H21.8727V14.48H24.8727V9.02C24.8727 7.6 25.6327 6.96 26.7327 6.96C27.6927 6.96 28.4727 7.54 28.4727 8.78V14.48H31.4727V8.34C31.4727 5.64 29.7527 4.2 27.7327 4.2Z" fill="#0B0D17"/>
<path d="M40.7928 0.48V5.42C40.1328 4.66 39.1528 4.2 37.8128 4.2C35.1928 4.2 33.0328 6.5 33.0328 9.48C33.0328 12.46 35.1928 14.76 37.8128 14.76C39.1528 14.76 40.1328 14.3 40.7928 13.54V14.48H43.7928V0.48H40.7928ZM38.4128 11.92C37.0328 11.92 36.0328 10.98 36.0328 9.48C36.0328 7.98 37.0328 7.04 38.4128 7.04C39.7928 7.04 40.7928 7.98 40.7928 9.48C40.7928 10.98 39.7928 11.92 38.4128 11.92Z" fill="#0B0D17"/>
<path d="M47.4937 3.6C48.4737 3.6 49.2938 2.78 49.2938 1.8C49.2938 0.82 48.4737 0 47.4937 0C46.5137 0 45.6937 0.82 45.6937 1.8C45.6937 2.78 46.5137 3.6 47.4937 3.6ZM45.9937 14.48H48.9937V4.48H45.9937V14.48Z" fill="#0B0D17"/>
<path d="M56.6891 3.08V0.2C53.3691 0 51.8291 1.68 51.8291 4.48H50.4891V7.36H51.8291V14.48H54.8291V7.36H56.6891V4.48H54.8291C54.8291 3.32 55.5691 2.98 56.6891 3.08Z" fill="#0B0D17"/>
<path d="M64.4813 4.48L62.6012 10.6L60.3812 4.48H57.0812L61.0612 14.02C60.6212 15.24 59.9612 15.68 58.5612 15.68V18.48C61.3612 18.62 63.1413 17.36 64.2613 14.18L67.6813 4.48H64.4813Z" fill="#0B0D17"/>
</svg>
